<?xml version="1.0" encoding="UTF-8"?>
<svg version="1.1" xmlns="http://www.w3.org/2000/svg" width="512" height="512">
<path d="M0 0 C1.10214844 -0.02449219 2.20429688 -0.04898438 3.33984375 -0.07421875 C4.40074219 -0.07808594 5.46164063 -0.08195312 6.5546875 -0.0859375 C7.52647949 -0.09415527 8.49827148 -0.10237305 9.49951172 -0.11083984 C13.01035174 0.53883206 13.99598484 1.51464807 16.125 4.375 C18.59714324 10.37406793 20.2801932 16.43177283 21.83642578 22.72241211 C22.21506271 24.22868164 22.21506271 24.22868164 22.60134888 25.76538086 C23.14521229 27.93155281 23.68693382 30.09826343 24.2267189 32.26545525 C25.07992797 35.69094828 25.93877239 39.11498528 26.79904175 42.53871155 C28.31164721 48.56248717 29.81930983 54.58748685 31.32531738 60.61291504 C33.74206338 70.28213232 36.16261277 79.95038446 38.59020615 89.61688423 C39.43799348 92.99815297 40.2813854 96.38049828 41.12454224 99.76292419 C41.64029109 101.81978069 42.15622134 103.87659172 42.67236328 105.93334961 C42.90717407 106.88031204 43.14198486 107.82727448 43.38391113 108.80293274 C43.59971832 109.65940399 43.81552551 110.51587524 44.03787231 111.39830017 C44.22478701 112.14654525 44.4117017 112.89479033 44.60428047 113.6657095 C44.98310593 115.38988983 44.98310593 115.38988983 46.125 116.375 C46.50297981 114.7724511 46.50297981 114.7724511 46.88859558 113.13752747 C49.28553968 102.97515678 51.68271954 92.81284174 54.08011913 82.6505785 C55.31207259 77.42845638 56.5439484 72.20631598 57.77563477 66.98413086 C58.96849385 61.92658188 60.16157254 56.86908476 61.35479164 51.81162071 C61.8056827 49.90035463 62.2565 47.98907114 62.70723534 46.07776833 C62.9215703 45.16892073 63.13590527 44.26007313 63.35673523 43.32368469 C63.56818334 42.4267625 63.77963144 41.5298403 63.99748707 40.60573864 C64.41498347 38.83789134 64.83364131 37.07031788 65.25352764 35.30303669 C66.34160848 30.72063991 67.40922972 26.13473186 68.44790649 21.54086304 C68.66692029 20.58636355 68.88593409 19.63186407 69.11158466 18.64844036 C69.52884775 16.82913008 69.93947986 15.00828125 70.34223461 13.18570423 C71.35575305 8.80295922 72.29984582 4.99187504 75.125 1.375 C79.8302323 -0.19341077 84.57100433 0.06660805 89.5 0 C91.06234375 -0.05607422 91.06234375 -0.05607422 92.65625 -0.11328125 C93.66429687 -0.12488281 94.67234375 -0.13648437 95.7109375 -0.1484375 C96.6292334 -0.16825684 97.5475293 -0.18807617 98.49365234 -0.20849609 C102.25540916 0.62566598 103.63855162 2.47789082 106.125 5.375 C107.30436707 8.38908386 107.30436707 8.38908386 108.09448242 11.79370117 C108.24513877 12.42022111 108.39579512 13.04674105 108.55101681 13.69224644 C109.04467693 15.7638588 109.51251119 17.84041326 109.98046875 19.91796875 C110.32603496 21.39028739 110.6732277 22.8622251 111.02194214 24.33380127 C111.94829124 28.26213242 112.85281288 32.1951897 113.75325394 36.12952805 C114.68429986 40.17999664 115.63571851 44.22566561 116.58569336 48.27172852 C118.08775561 54.6783286 119.57957141 61.0872182 121.06347656 67.49804688 C123.47253802 77.90041113 125.94753763 88.28671654 128.43621826 98.67028809 C130.00623545 105.23683489 131.56468038 111.80614335 133.125 118.375 C133.37032471 117.42684418 133.61564941 116.47868835 133.8684082 115.50180054 C136.21934477 106.41626764 138.57147734 97.33104504 140.92468262 88.24609947 C142.13346281 83.57925241 143.34186961 78.91230943 144.54931641 74.24511719 C147.08518589 64.44401702 149.62600278 54.6442399 152.17955017 44.84772873 C153.43335133 40.03687398 154.68098168 35.22449236 155.92269897 30.41050529 C156.64917151 27.60087198 157.38222369 24.7929896 158.11737061 21.98561478 C158.60911559 20.09997277 159.09302029 18.21229155 159.57666016 16.32455444 C159.8710498 15.20634308 160.16543945 14.08813171 160.46875 12.93603516 C160.71818359 11.97508942 160.96761719 11.01414368 161.22460938 10.02407837 C162.72072342 5.62229625 164.23120024 2.97086651 168.125 0.375 C170.54516602 0.11621094 170.54516602 0.11621094 173.37890625 0.109375 C174.39791016 0.10679688 175.41691406 0.10421875 176.46679688 0.1015625 C177.52962891 0.10929687 178.59246094 0.11703125 179.6875 0.125 C180.75419922 0.11726563 181.82089844 0.10953125 182.91992188 0.1015625 C183.93763672 0.10414062 184.95535156 0.10671875 186.00390625 0.109375 C187.40491577 0.11275879 187.40491577 0.11275879 188.83422852 0.11621094 C191.125 0.375 191.125 0.375 193.125 2.375 C193.48236871 9.73896122 190.98403772 16.88249046 188.72265625 23.78125 C188.37325989 24.87532166 188.02386353 25.96939331 187.66387939 27.09661865 C186.51384753 30.6922879 185.35053029 34.28351645 184.1875 37.875 C183.37858041 40.3977309 182.57057531 42.92072802 181.7644043 45.44433594 C181.56054517 46.08242565 181.35668604 46.72051537 181.14664936 47.37794113 C180.73015893 48.68167701 180.31371415 49.98542746 179.89731407 51.2891922 C179.26113991 53.27965797 178.62369465 55.26971323 177.98603821 57.25970459 C174.99864127 66.59031715 172.06675876 75.93716731 169.171875 85.296875 C168.87141927 86.26799225 168.87141927 86.26799225 168.56489372 87.25872803 C166.81304413 92.92262587 165.06499975 98.58769474 163.31985474 104.25366211 C161.26180516 110.93327144 159.19033953 117.60833105 157.09429932 124.27612305 C156.44584815 126.34923951 155.80359192 128.42430344 155.16741943 130.5012207 C154.26671116 133.43831035 153.34497923 136.36799855 152.41796875 139.296875 C152.15792557 140.16233948 151.89788239 141.02780396 151.62995911 141.91949463 C150.07288715 146.74802167 148.76993668 149.79428801 144.125 152.375 C141.50952148 152.86083984 141.50952148 152.86083984 138.74609375 152.8359375 C137.24079102 152.83013672 137.24079102 152.83013672 135.70507812 152.82421875 C134.66802734 152.79972656 133.63097656 152.77523437 132.5625 152.75 C131.52158203 152.74871094 130.48066406 152.74742187 129.40820312 152.74609375 C119.96890025 152.63682851 119.96890025 152.63682851 117.125 150.375 C114.5869385 144.36167847 112.98768989 138.26060318 111.48950195 131.91992188 C111.12308594 130.39661255 111.12308594 130.39661255 110.74926758 128.8425293 C109.94910265 125.51074095 109.15614843 122.17728181 108.36328125 118.84375 C107.80750808 116.52337149 107.25128302 114.20310117 106.69462585 111.88293457 C105.2352249 105.79477328 103.7819464 99.70516667 102.32995605 93.61523438 C100.84542433 87.39364334 99.3550821 81.17344476 97.86523438 74.953125 C94.94614797 62.76176961 92.03333262 50.568925 89.125 38.375 C84.507645 56.6372692 79.95789833 74.912193 75.6328125 93.24609375 C75.26664635 94.79490676 74.90041508 96.34370437 74.53411865 97.89248657 C73.05731228 104.14066948 71.58219373 110.38922066 70.12011719 116.64086914 C69.20286807 120.56150322 68.27732064 124.48009751 67.34627914 128.3974781 C66.99950983 129.8635058 66.6558217 131.33026621 66.3154335 132.79778862 C65.84591898 134.82083808 65.36585141 136.84111056 64.88330078 138.86108398 C64.48100754 140.5735154 64.48100754 140.5735154 64.07058716 142.32054138 C62.8896397 146.13526655 61.60607697 149.3803943 58.22216797 151.65283203 C54.32419436 152.99511445 50.33919423 153.0257729 46.25 153.25 C45.36441406 153.3221875 44.47882813 153.394375 43.56640625 153.46875 C39.20378993 153.71581322 36.67591356 153.64358597 32.6796875 151.6953125 C28.20315201 147.62946834 26.57234827 143.15994214 24.85107422 137.4440918 C24.64354019 136.761717 24.43600616 136.07934219 24.22218323 135.37628937 C23.53492305 133.11082133 22.85734439 130.8425761 22.1796875 128.57421875 C21.69235024 126.96134867 21.20439092 125.34866643 20.71585083 123.73616028 C19.406802 119.40942051 18.10600793 115.08024149 16.80706787 110.75045776 C15.46137923 106.26861137 14.10943515 101.78865346 12.7578125 97.30859375 C11.12225958 91.88666241 9.48715418 86.46460027 7.85516357 81.04159546 C4.73196001 70.66789097 1.57953342 60.30389116 -1.61672592 49.95246315 C-2.23230902 47.95779048 -2.84655206 45.96271084 -3.4602356 43.967453 C-3.65602392 43.33090569 -3.85181225 42.69435839 -4.05353355 42.03852177 C-4.24582354 41.4132632 -4.43811352 40.78800463 -4.63623047 40.14379883 C-5.74538193 36.53745859 -6.85721994 32.93209446 -7.97906494 29.3296814 C-8.99478344 26.06615693 -9.99867241 22.79921326 -11 19.53125 C-11.29566864 18.59320023 -11.59133728 17.65515045 -11.89596558 16.68867493 C-13.39469531 11.75376126 -14.40124859 7.53965759 -13.875 2.375 C-10.30667653 -1.19332347 -4.82760776 0.00560698 0 0 Z " fill="#252E3D" transform="translate(173.875,106.625)"/>
<path d="M0 0 C5.94257113 0.104044 10.85240792 3.7598555 15.85546875 6.63671875 C18.19345236 7.93467936 20.53327543 9.22777923 22.87890625 10.51171875 C23.48005753 10.84145187 24.0812088 11.171185 24.70057678 11.51091003 C109.23330958 57.56821113 213.28795759 75.47282841 396.41178894 47.42863464 C413.6447391 42.31867337 430.79569844 36.59552667 447.3203125 29.5078125 C451.87314774 27.81533191 454.89519505 26.94491219 459.48046875 28.76171875 C462.16796875 30.44921875 462.16796875 30.44921875 463.16796875 32.44921875 C463.56346756 36.00870806 463.57587165 37.83636951 461.56640625 40.85546875 C458.82782214 43.81706459 455.84942044 45.97152956 452.48046875 48.13671875 C451.81821289 48.56750732 451.15595703 48.9982959 450.47363281 49.44213867 C448.38029303 50.79181778 446.27624156 52.1230075 444.16796875 53.44921875 C443.21446533 54.05491699 443.21446533 54.05491699 442.24169922 54.67285156 C404.14191806 78.66852877 360.32139323 92.7829339 316.16796875 100.44921875 C315.30397461 100.60084473 314.43998047 100.7524707 313.54980469 100.90869141 C308.10158899 101.85128562 302.64399702 102.68600497 297.16796875 103.44921875 C296.48379883 103.54831543 295.79962891 103.64741211 295.09472656 103.74951172 C271.71028084 107.06221509 247.69017091 107.1149541 224.16796875 105.44921875 C223.07291016 105.37219727 221.97785156 105.29517578 220.84960938 105.21582031 C169.48947156 101.32490078 121.0959262 86.62215476 75.16796875 63.44921875 C74.06557861 62.89886963 74.06557861 62.89886963 72.94091797 62.33740234 C49.61204216 50.63015393 28.05691499 35.27071557 8.16796875 18.44921875 C7.5538916 17.93907227 6.93981445 17.42892578 6.30712891 16.90332031 C4.57660991 15.45849359 2.86938908 13.99062396 1.16796875 12.51171875 C-0.28609375 11.26068359 -0.28609375 11.26068359 -1.76953125 9.984375 C-3.83203125 7.44921875 -3.83203125 7.44921875 -4.20703125 4.1953125 C-3.70035271 0.48494779 -3.71302272 0.58896222 0 0 Z " fill="#FE9800" transform="translate(3.83203125,303.55078125)"/>
<path d="M0 0 C8.37319868 7.62199267 12.90928494 19.40852009 14.78515625 30.375 C14.88816668 32.59984942 14.94067166 34.82728381 14.95874023 37.05444336 C14.96542725 37.70568176 14.97211426 38.35692017 14.97900391 39.02789307 C14.99300218 40.43666189 15.00491262 41.8454527 15.01495171 43.25425529 C15.03149084 45.49750997 15.0547392 47.74060572 15.07984924 49.98377991 C15.15022406 56.36027945 15.21026801 62.73684765 15.26196289 69.11352539 C15.29412535 73.02274334 15.33549759 76.93178232 15.38215828 80.84085274 C15.39797002 82.31689735 15.41038495 83.79298306 15.41906548 85.26908684 C15.43305032 103.13944647 15.43305032 103.13944647 20.34765625 120.125 C20.78207031 121.08921875 21.21648437 122.0534375 21.6640625 123.046875 C22.36112219 124.49442753 23.06664383 125.93797515 23.78515625 127.375 C24.34765625 130.0625 24.34765625 130.0625 23.78515625 133.375 C19.56615979 138.46921381 13.05701688 143.21306599 6.78515625 145.375 C1.84789062 144.9033806 -0.00371808 143.13436664 -3.21484375 139.375 C-4.79255555 137.13424982 -6.30588867 134.86545157 -7.78515625 132.55859375 C-9.18102513 130.42665194 -10.66511097 128.39698863 -12.21484375 126.375 C-12.70210938 126.931875 -13.189375 127.48875 -13.69140625 128.0625 C-25.10316058 140.34569739 -40.59969333 147.56449971 -57.3984375 148.49609375 C-70.95773855 148.86490674 -84.72242367 146.34518881 -94.9609375 136.8203125 C-104.35094062 126.63289144 -108.62470411 117.00578223 -108.52734375 103 C-108.51997192 101.74437256 -108.51997192 101.74437256 -108.51245117 100.46337891 C-108.28386975 88.41069068 -104.11517093 78.5084091 -96.21484375 69.375 C-82.87730873 57.7924038 -68.35043038 53.98096434 -51.08984375 54 C-49.87458008 53.99871094 -48.65931641 53.99742187 -47.40722656 53.99609375 C-35.74823487 54.12979081 -24.57971501 55.87166573 -13.21484375 58.375 C-13.46680899 54.72761086 -13.74489504 51.08264513 -14.02734375 47.4375 C-14.09759766 46.41591797 -14.16785156 45.39433594 -14.24023438 44.34179688 C-15.03895388 34.34182867 -16.88274825 25.16021391 -24.65234375 18.1875 C-40.99165674 9.8745162 -59.97629632 12.77794132 -76.7578125 18.09765625 C-85.65332414 20.81325001 -85.65332414 20.81325001 -94.21484375 24.375 C-96.1796875 23.3984375 -96.1796875 23.3984375 -98.21484375 21.375 C-98.650463 18.4248062 -98.81961604 15.94414041 -98.77734375 13 C-98.80119141 12.24460937 -98.82503906 11.48921875 -98.84960938 10.7109375 C-98.83876124 6.57418243 -98.58573532 4.85103127 -95.96875 1.4921875 C-71.74097314 -17.13398989 -24.47035593 -17.9535592 0 0 Z M-74.21484375 86.375 C-78.3508291 92.63339889 -78.6166249 99.82241528 -77.52734375 107 C-76.08575887 113.94843911 -73.09870407 118.35675392 -67.21484375 122.375 C-58.8716488 126.63861801 -46.33127132 125.4342044 -37.65234375 122.75 C-32.45161782 120.71903311 -27.41970801 118.09142043 -23.21484375 114.375 C-23.21484375 113.715 -23.21484375 113.055 -23.21484375 112.375 C-22.22484375 112.045 -21.23484375 111.715 -20.21484375 111.375 C-12.9125156 101.86247164 -12.89096872 90.85457035 -13.21484375 79.375 C-17.03515288 77.62756231 -20.28238909 77.05458789 -24.46484375 76.8125 C-30.11497345 76.4748703 -30.11497345 76.4748703 -31.21484375 75.375 C-34.83154412 75.09076301 -38.46333758 75.14299755 -42.08984375 75.125 C-43.09015625 75.104375 -44.09046875 75.08375 -45.12109375 75.0625 C-57.01584983 75.00102839 -66.26161515 77.11908741 -74.21484375 86.375 Z " fill="#252E3D" transform="translate(129.21484375,114.625)"/>
<path d="M0 0 C3.89726715 4.72396018 3.32107419 10.20956027 3.30078125 16.07421875 C3 19 3 19 1 22 C-3.68213182 22.57605628 -7.0266514 21.43562712 -11.3125 19.625 C-26.25943248 13.67312812 -43.90862344 11.61522804 -59.4375 16.81640625 C-64.15243177 18.88785605 -66.53755418 21.37060186 -69 26 C-70.64216742 30.92650227 -70.58729125 35.25350455 -68.625 40.0625 C-62.35740566 50.79214148 -46.45674659 53.48986496 -35.4375 57.0625 C-32.67065566 57.96315854 -29.90529487 58.86755871 -27.14332581 59.7830658 C-25.43655696 60.34855859 -23.72702482 60.90581062 -22.01426697 61.45289612 C-9.5733694 65.56694513 1.46645004 72.3537417 7.5625 84.3125 C12.24731569 94.46514591 12.70202724 106.62634467 9.5 117.375 C4.47915518 130.14578996 -4.68139241 138.75131646 -17 144.5 C-19.67725692 145.64177133 -21.02534169 146 -24 146 C-24.33 146.66 -24.66 147.32 -25 148 C-42.62756971 153.38826592 -64.59670016 151.33677979 -82 146 C-82.66225586 145.81276367 -83.32451172 145.62552734 -84.00683594 145.43261719 C-97.32987881 141.63820409 -97.32987881 141.63820409 -101.1484375 136.3671875 C-103.11347493 130.90474401 -102.6935064 124.6814178 -102 119 C-101.34 118.01 -100.68 117.02 -100 116 C-94.71336974 116.31719782 -90.39897729 117.49966295 -85.4375 119.375 C-68.99070247 125.3793864 -46.72475048 129.34489992 -30 122 C-24.58810077 119.29405039 -21.29489905 115.56071693 -19 110 C-17.95835075 104.19231409 -19.01561021 100.09833255 -22 95 C-22 94.34 -22 93.68 -22 93 C-33.21288827 87.31384339 -44.61595521 83.41912798 -56.67236328 79.89208984 C-70.80076012 75.71273067 -86.29680667 70.0005895 -93.94921875 56.58203125 C-99.79647495 45.35857626 -102.16565031 34.37201597 -99 21.75 C-93.95872171 7.48223127 -82.46084402 -0.43852163 -69.5 -6.6875 C-49.91787455 -14.03079704 -17.06724448 -13.44691989 0 0 Z " fill="#252F3D" transform="translate(480,113)"/>
<path d="M0 0 C2.9348575 2.71434943 3.14580339 3.46444662 3.421875 7.51953125 C4.11051876 34.97222166 -5.96370698 62.95343763 -24.76953125 83.11328125 C-27.35652542 85.76549376 -29.72030989 87.95546701 -32.81640625 90.01953125 C-35.50390625 89.64453125 -35.50390625 89.64453125 -37.81640625 89.01953125 C-39.16618786 84.97018643 -38.04418939 83.52114644 -36.44140625 79.58203125 C-24.1509725 50.65654924 -24.1509725 50.65654924 -22.81640625 20.01953125 C-38.46746091 14.25907363 -54.30323903 15.80298907 -70.63256836 17.30786133 C-77.67593115 17.93676301 -84.74456652 18.42971153 -91.81640625 18.01953125 C-92.81640625 17.01953125 -92.81640625 17.01953125 -93.14453125 14.67578125 C-92.81640625 12.01953125 -92.81640625 12.01953125 -91.05078125 10.17578125 C-70.11775641 -3.77956864 -23.0022388 -16.17494462 0 0 Z " fill="#FD9800" transform="translate(508.81640625,298.98046875)"/>
</svg>
