<?xml version="1.0" encoding="UTF-8"?>
<svg version="1.1" xmlns="http://www.w3.org/2000/svg" width="418" height="120">
<path d="M0 0 C137.94 0 275.88 0 418 0 C418 39.6 418 79.2 418 120 C280.06 120 142.12 120 0 120 C0 80.4 0 40.8 0 0 Z " fill="#FDFEFE" transform="translate(0,0)"/>
<path d="M0 0 C2.17535828 2.80227888 4.04796907 5.65926331 5.828125 8.7265625 C6.37275391 9.66242187 6.91738281 10.59828125 7.47851562 11.5625 C8.06310547 12.573125 8.64769531 13.58375 9.25 14.625 C9.86552734 15.68460938 10.48105469 16.74421875 11.11523438 17.8359375 C16.22497256 26.63977356 21.30765384 35.45928496 26.3894043 44.27929688 C32.29632897 54.52723447 38.25409413 64.7451069 44.22216797 74.95751953 C47.35840754 80.32470128 50.49180558 85.69354022 53.625 91.0625 C54.20515869 92.05588379 54.78531738 93.04926758 55.38305664 94.07275391 C56.45135315 95.90317437 57.51811834 97.73448984 58.58300781 99.56689453 C59.47739232 101.1026347 60.37708395 102.6353076 61.28417969 104.16357422 C64 108.78237292 64 108.78237292 64 111 C25.72 111 -12.56 111 -52 111 C-52 110.67 -52 110.34 -52 110 C-50.83608231 109.79994858 -50.83608231 109.79994858 -49.64865112 109.59585571 C-42.32106636 108.33555269 -34.99427801 107.07075601 -27.66833305 105.80095863 C-23.90235566 105.14836809 -20.13609879 104.49749315 -16.36914062 103.85058594 C-12.73095522 103.22572729 -9.09358663 102.59630085 -5.45672989 101.96375656 C-4.07201135 101.72373423 -2.68701066 101.48533364 -1.30172348 101.24861526 C0.64481489 100.91569928 2.59025422 100.57637674 4.53564453 100.23681641 C5.64150909 100.04584381 6.74737366 99.85487122 7.88674927 99.65811157 C11.02913075 98.99384204 13.97587922 98.07487559 17 97 C15.78376953 95.60201172 15.78376953 95.60201172 14.54296875 94.17578125 C8.66987196 87.4169879 2.80490629 80.65257925 -2.9519043 73.79418945 C-5.30284975 70.99421126 -7.67709582 68.22015805 -10.09375 65.4765625 C-10.60083496 64.89471191 -11.10791992 64.31286133 -11.63037109 63.71337891 C-12.5996677 62.60221857 -13.57616896 61.4972864 -14.56103516 60.39990234 C-17.27058073 57.27396558 -18.57645944 55.10600488 -19 51 C-18.44363403 48.50726318 -18.44363403 48.50726318 -17.47705078 45.85839844 C-17.11982941 44.86096619 -16.76260803 43.86353394 -16.39456177 42.83587646 C-15.99880951 41.77113098 -15.60305725 40.7063855 -15.1953125 39.609375 C-14.79674042 38.50901917 -14.39816833 37.40866333 -13.98751831 36.27496338 C-12.71153888 32.7623184 -11.41815396 29.2563536 -10.125 25.75 C-9.26064658 23.3727854 -8.3973524 20.99518538 -7.53515625 18.6171875 C-6.71448495 16.36423951 -5.89290175 14.11162343 -5.0703125 11.859375 C-4.6786087 10.78653259 -4.28690491 9.71369019 -3.8833313 8.6083374 C-3.5198056 7.62351379 -3.15627991 6.63869019 -2.78173828 5.62402344 C-2.46117462 4.75308044 -2.14061096 3.88213745 -1.81033325 2.98480225 C-1 1 -1 1 0 0 Z " fill="#0189D6" transform="translate(91,9)"/>
<path d="M0 0 C28.38 0 56.76 0 86 0 C84.57117439 2.85765122 82.15964341 4.12055259 79.6328125 5.97265625 C76.38339073 8.47480743 73.28854443 11.13010707 70.1875 13.8125 C65.95691054 17.4687733 61.71047259 21.09262508 57.375 24.625 C56.49070313 25.36105469 55.60640625 26.09710937 54.6953125 26.85546875 C52 29 52 29 49.1796875 30.86328125 C38.31967097 38.55217295 33.12444215 50.10162761 26.89794922 61.54736328 C23.93028746 66.94595764 20.80982969 72.25235727 17.6875 77.5625 C16.54123159 79.52188096 15.3953874 81.48151016 14.25 83.44140625 C13.70601562 84.37098145 13.16203125 85.30055664 12.6015625 86.25830078 C11.04181924 88.92841005 9.48886074 91.60235748 7.9375 94.27734375 C7.02092514 95.85161596 6.10426424 97.42583807 5.1875 99 C4.56524536 100.07809937 4.56524536 100.07809937 3.93041992 101.17797852 C2.98165026 102.80202618 1.99530252 104.4040465 1 106 C0.67 106 0.34 106 0 106 C0 71.02 0 36.04 0 0 Z " fill="#FDFEFE" transform="translate(0,0)"/>
<path d="M0 0 C0.495 0.99 0.495 0.99 1 2 C0.12646484 4.26123047 0.12646484 4.26123047 -1.2890625 7.1171875 C-1.81145508 8.18380615 -2.33384766 9.2504248 -2.87207031 10.34936523 C-3.45053711 11.51282471 -4.02900391 12.67628418 -4.625 13.875 C-5.8451502 16.36132887 -7.05916313 18.85064105 -8.2734375 21.33984375 C-8.58619629 21.97920364 -8.89895508 22.61856354 -9.22119141 23.27729797 C-12.31963385 29.62309644 -15.29389258 36.02427374 -18.25 42.4375 C-24.12309552 55.1532844 -30.09355021 67.82166595 -36.08886719 80.48022461 C-36.43633499 81.21438599 -36.7838028 81.94854736 -37.14179993 82.70495605 C-37.78068869 84.05468056 -38.42009672 85.4041595 -39.06022644 86.7532959 C-42.08727818 93.14805697 -45.0345888 99.5749424 -48 106 C-59.88 106 -71.76 106 -84 106 C-77.24499855 93.61583068 -77.24499855 93.61583068 -74.44140625 88.71484375 C-73.81540527 87.61938232 -73.1894043 86.5239209 -72.54443359 85.39526367 C-70.11109327 81.14995707 -67.67767163 76.90469644 -65.24163818 72.66093445 C-63.1017679 68.93080158 -60.97385471 65.19419422 -58.8568573 61.45103455 C-57.84591518 59.6651517 -56.83166262 57.88119457 -55.81616211 56.09790039 C-54.55467975 53.88161979 -53.29866672 51.66221397 -52.04907227 49.43920898 C-47.5929188 41.64140818 -43.0352234 35.32286474 -35.9375 29.75 C-31.73318993 26.39567934 -27.59264482 22.98839427 -23.5 19.5 C-18.5098766 15.25846908 -13.46917835 11.08482433 -8.390625 6.94921875 C-5.57561635 4.65397477 -2.78407384 2.33260241 0 0 Z " fill="#0289D6" transform="translate(84,1)"/>
<path d="M0 0 C2.97 0 5.94 0 9 0 C11.56025358 6.59350328 14.11961395 13.18735239 16.67822266 19.78149414 C17.54485198 22.01465736 18.41170602 24.24773339 19.27880859 26.48071289 C24.90414412 40.96774441 30.48769254 55.46956524 36 70 C33.03 70 30.06 70 27 70 C26.67386719 69.21496094 26.34773438 68.42992188 26.01171875 67.62109375 C25.57472656 66.57050781 25.13773438 65.51992187 24.6875 64.4375 C24.25824219 63.40496094 23.82898438 62.37242188 23.38671875 61.30859375 C21.94320337 57.86448805 20.47104471 54.43243765 19 51 C4.15 50.505 4.15 50.505 -11 50 C-11.66 52.97 -12.32 55.94 -13 59 C-13.66334825 61.03604336 -14.36478707 63.06060595 -15.125 65.0625 C-15.65480469 66.47208984 -15.65480469 66.47208984 -16.1953125 67.91015625 C-16.59363281 68.94462891 -16.59363281 68.94462891 -17 70 C-19.97 70 -22.94 70 -26 70 C-23.88973846 62.66578413 -21.42316034 55.56137689 -18.69140625 48.4375 C-18.28341293 47.36556396 -17.87541962 46.29362793 -17.45506287 45.18920898 C-16.16082399 41.79154398 -14.86164404 38.39579201 -13.5625 35 C-12.69435738 32.72147 -11.82651618 30.44282513 -10.95898438 28.1640625 C-10.12006165 25.96343872 -9.28087763 23.76291454 -8.44140625 21.5625 C-8.05586075 20.55179443 -7.67031525 19.54108887 -7.27308655 18.49975586 C-4.90463791 12.3101912 -2.48048344 6.14552922 0 0 Z " fill="#0489D5" transform="translate(197,37)"/>
<path d="M0 0 C5.33613377 3.01298808 8.19705148 6.56359171 10.6171875 12.16015625 C10.6171875 17.11015625 10.6171875 22.06015625 10.6171875 27.16015625 C-0.6028125 27.16015625 -11.8228125 27.16015625 -23.3828125 27.16015625 C-21.58316796 36.00321215 -21.58316796 36.00321215 -16.3828125 42.16015625 C-11.13736545 44.78287977 -2.9161154 43.93469078 2.54296875 42.265625 C4.63850291 41.31979379 6.64011445 40.33175509 8.6171875 39.16015625 C8.6171875 41.80015625 8.6171875 44.44015625 8.6171875 47.16015625 C0.03188579 51.0848656 -9.6610279 53.6360487 -18.875 50.2421875 C-25.31246964 46.48902124 -29.43022622 41.3795871 -31.3828125 34.16015625 C-32.18431951 25.25038065 -32.4934108 15.89011412 -27.3828125 8.16015625 C-20.17146839 0.10573225 -10.69241211 -3.76863705 0 0 Z " fill="#088AD6" transform="translate(407.3828125,56.83984375)"/>
<path d="M0 0 C2.64 0 5.28 0 8 0 C8.01458252 0.95777344 8.02916504 1.91554687 8.04418945 2.90234375 C8.10258363 6.48848011 8.17980984 10.07401526 8.26245117 13.65966797 C8.29550862 15.20546643 8.32359903 16.75138004 8.34643555 18.29736328 C8.31848131 30.03293293 8.31848131 30.03293293 12 41 C16.45471292 43.96980861 20.77810319 43.74926191 26 43 C29.91557263 40.2031624 31.54066175 37.50362968 33 33 C33.22647164 30.51037265 33.35432084 28.01091156 33.4140625 25.51171875 C33.43342865 24.80852005 33.4527948 24.10532135 33.4727478 23.3808136 C33.53220183 21.14982981 33.57879049 18.91879346 33.625 16.6875 C33.66321137 15.16859814 33.70226492 13.64971722 33.7421875 12.13085938 C33.83787416 8.42076533 33.92203072 4.71051349 34 1 C36.64 1 39.28 1 42 1 C42 17.17 42 33.34 42 50 C39.36 50 36.72 50 34 50 C33.505 47.03 33.505 47.03 33 44 C32.52949219 44.42152344 32.05898438 44.84304687 31.57421875 45.27734375 C30.95160156 45.82519531 30.32898438 46.37304688 29.6875 46.9375 C29.07261719 47.48277344 28.45773437 48.02804688 27.82421875 48.58984375 C23.29837872 52.08840532 17.42909182 51.52392634 12 51 C8.38432442 49.9622284 5.8630475 48.28797303 3.72265625 45.09375 C0.53070465 39.00518752 -0.1451179 33.80334574 -0.09765625 26.953125 C-0.0962413 26.18192322 -0.09482635 25.41072144 -0.09336853 24.6161499 C-0.08778534 22.16072662 -0.07523595 19.70539558 -0.0625 17.25 C-0.05748283 15.58203257 -0.0529203 13.91406371 -0.04882812 12.24609375 C-0.03782141 8.16402713 -0.02056836 4.08202919 0 0 Z " fill="#0689D6" transform="translate(286,57)"/>
<path d="M0 0 C12.87 0 25.74 0 39 0 C37.94896276 5.2551862 36.84278497 6.87936274 33.5625 10.9375 C32.6489331 12.08686884 31.73754274 13.23797042 30.828125 14.390625 C30.35955078 14.98294922 29.89097656 15.57527344 29.40820312 16.18554688 C27.12570846 19.12651434 24.96545761 22.15101931 22.8125 25.1875 C22.05582031 26.25355469 21.29914063 27.31960937 20.51953125 28.41796875 C17.33881091 32.94001611 14.17046862 37.47075912 11 42 C24.86 42.495 24.86 42.495 39 43 C39 45.31 39 47.62 39 50 C25.47 50 11.94 50 -2 50 C-1.11154428 45.55772138 -0.82177681 44.30680523 1.703125 40.98828125 C2.26563965 40.23844971 2.8281543 39.48861816 3.40771484 38.71606445 C4.01566895 37.92288818 4.62362305 37.12971191 5.25 36.3125 C6.51912301 34.62567213 7.78732821 32.9381534 9.0546875 31.25 C9.7053418 30.38761719 10.35599609 29.52523437 11.02636719 28.63671875 C14.19682452 24.40107561 17.28654 20.10810027 20.375 15.8125 C22.23125 13.234375 24.0875 10.65625 26 8 C13.13 7.505 13.13 7.505 0 7 C0 4.69 0 2.38 0 0 Z " fill="#0A8AD6" transform="translate(238,57)"/>
<path d="M0 0 C0 2.97 0 5.94 0 9 C-1.01320313 8.93039063 -1.01320313 8.93039063 -2.046875 8.859375 C-7.52485726 8.52675455 -7.52485726 8.52675455 -12.4375 10.5625 C-16.05560816 16.20674873 -17.37275674 20.76687505 -17.51171875 27.46484375 C-17.52966995 28.14301651 -17.54762115 28.82118927 -17.56611633 29.51991272 C-17.61974943 31.65904757 -17.65396044 33.79796558 -17.6875 35.9375 C-17.72071492 37.39911843 -17.75520837 38.8607084 -17.79101562 40.32226562 C-17.87544603 43.8813021 -17.9424797 47.44041512 -18 51 C-20.64 51 -23.28 51 -26 51 C-26 34.5 -26 18 -26 1 C-23.36 1 -20.72 1 -18 1 C-17.67 3.64 -17.34 6.28 -17 9 C-16.443125 8.071875 -15.88625 7.14375 -15.3125 6.1875 C-10.8539083 0.0418736 -7.1793768 -0.36505306 0 0 Z " fill="#098AD6" transform="translate(370,56)"/>
<path d="M0 0 C2.15164872 3.22747308 3.34037618 6.44544701 4.6015625 10.07421875 C4.8428891 10.7580513 5.0842157 11.44188385 5.33285522 12.1464386 C6.10082236 14.3254368 6.86297808 16.50641646 7.625 18.6875 C8.14545119 20.16745215 8.66628015 21.64727151 9.1875 23.12695312 C10.46343365 26.74954818 11.73148625 30.37476588 13 34 C4.75 34 -3.5 34 -12 34 C-10.7625 30.431875 -9.525 26.86375 -8.25 23.1875 C-7.86875977 22.08688232 -7.48751953 20.98626465 -7.09472656 19.85229492 C-4.78856351 13.21292938 -2.42075629 6.59843429 0 0 Z " fill="#F8FBFD" transform="translate(201,46)"/>
<path d="M0 0 C3.24397902 1.64836333 5.31388815 4.00201913 7.375 7 C8 9 8 9 8 14 C-0.91 14 -9.82 14 -19 14 C-17.87170562 7.23023371 -17.87170562 7.23023371 -15.0625 4.1875 C-14.53785156 3.60355469 -14.01320313 3.01960938 -13.47265625 2.41796875 C-9.78446971 -1.13325595 -4.80207422 -0.66286301 0 0 Z " fill="#FAFCFE" transform="translate(403,63)"/>
</svg>
