<?xml version="1.0" standalone="no"?>
<!DOCTYPE svg PUBLIC "-//W3C//DTD SVG 20010904//EN"
 "http://www.w3.org/TR/2001/REC-SVG-20010904/DTD/svg10.dtd">
<svg version="1.0" xmlns="http://www.w3.org/2000/svg"
 width="225.000000pt" height="225.000000pt" viewBox="0 0 225.000000 225.000000"
 preserveAspectRatio="xMidYMid meet">
<metadata>
Created by potrace 1.16, written by Peter Selinger 2001-2019
</metadata>
<g transform="translate(0.000000,225.000000) scale(0.100000,-0.100000)"
fill="#000000" stroke="none">
<path d="M985 2239 c-268 -36 -487 -148 -675 -345 -146 -154 -237 -327 -287
-547 -22 -98 -22 -346 0 -444 53 -235 144 -401 311 -569 226 -225 474 -328
791 -328 325 0 590 114 815 350 146 154 237 327 287 547 22 98 22 346 0 444
-53 235 -144 401 -311 569 -136 136 -266 218 -436 274 -143 48 -353 69 -495
49z m-39 -787 c61 -31 97 -65 127 -119 26 -49 54 -181 43 -209 -4 -12 -49 -14
-277 -14 l-272 0 7 -52 c25 -184 160 -274 333 -223 58 17 113 71 133 129 22
67 78 71 59 4 -54 -197 -326 -266 -479 -122 -58 54 -77 91 -97 191 -33 160 28
323 148 399 20 12 52 27 70 33 52 16 158 7 205 -17z m386 -127 c53 -71 101
-130 107 -130 5 0 53 58 106 128 53 70 102 130 110 133 7 3 23 4 35 2 20 -3 9
-20 -94 -155 -64 -84 -116 -157 -116 -163 0 -6 56 -84 125 -175 69 -91 125
-170 125 -175 0 -13 -23 -13 -52 1 -13 5 -72 77 -131 160 l-108 149 -101 -137
c-55 -76 -111 -148 -125 -160 -25 -24 -63 -31 -63 -13 0 6 57 87 126 181 l126
170 -103 135 c-57 74 -112 147 -123 160 l-19 25 39 -3 c37 -3 43 -9 136 -133z"/>
<path d="M760 1421 c-98 -30 -164 -110 -184 -223 l-7 -38 246 0 245 0 0 23 c0
50 -31 126 -70 170 -57 65 -150 92 -230 68z"/>
</g>
</svg>
