<?xml version="1.0" encoding="UTF-8"?>
<svg version="1.1" xmlns="http://www.w3.org/2000/svg" width="239" height="211">
<path d="M0 0 C78.87 0 157.74 0 239 0 C239 69.63 239 139.26 239 211 C160.13 211 81.26 211 0 211 C0 141.37 0 71.74 0 0 Z " fill="#FEFEFE" transform="translate(0,0)"/>
<path d="M0 0 C3.83771682 3.09544237 6.5351665 6.78900927 8.625 11.25 C8.625 11.91 8.625 12.57 8.625 13.25 C6.23243751 13.95121643 3.83709511 14.63614901 1.4375 15.3125 C0.76396484 15.51166016 0.09042969 15.71082031 -0.60351562 15.91601562 C-4.54824218 17.01284203 -7.45962257 17.57584209 -11.375 16.25 C-12.98375 15.2290625 -12.98375 15.2290625 -14.625 14.1875 C-18.82811098 11.70757335 -22.59967477 11.29821696 -27.375 12.25 C-33.41832775 14.85525083 -37.43569919 18.75925854 -40.625 24.5 C-42.01985582 29.61447133 -42.31458153 34.40998617 -39.875 39.1875 C-39.38 39.868125 -38.885 40.54875 -38.375 41.25 C-38.375 41.91 -38.375 42.57 -38.375 43.25 C-37.59125 43.559375 -36.8075 43.86875 -36 44.1875 C-33.375 45.25 -33.375 45.25 -31.375 46.25 C-25.27676441 47.13563587 -21.1950595 46.13003967 -16.1015625 42.734375 C-13.97078669 41.01032256 -13.97078669 41.01032256 -11.375 37.25 C-17.645 37.25 -23.915 37.25 -30.375 37.25 C-30.705 36.26 -31.035 35.27 -31.375 34.25 C-29.395 30.62 -27.415 26.99 -25.375 23.25 C-14.815 23.25 -4.255 23.25 6.625 23.25 C7.285 21.27 7.945 19.29 8.625 17.25 C13.9976468 6.99793299 22.69768389 -0.87873752 33.73828125 -4.4296875 C43.12922245 -6.86499374 54.21044456 -7.09069193 62.97265625 -2.52734375 C70.92131106 2.44885918 77.15284897 9.01784277 79.625 18.25 C81.00170498 30.57847041 78.27410863 40.56233176 70.625 50.25 C65.82584726 56.09602675 60.55570624 59.32560618 53.625 62.25 C52.90441406 62.57097656 52.18382812 62.89195312 51.44140625 63.22265625 C42.86196322 66.60720717 33.89014092 66.46909747 25.3125 63.1875 C17.5340479 59.55002042 11.97496016 54.61147103 7.625 47.25 C6.965 46.26 6.305 45.27 5.625 44.25 C5.20089844 44.83007812 4.77679688 45.41015625 4.33984375 46.0078125 C-3.50461954 56.45560317 -12.16342764 63.22125668 -25.375 65.25 C-34.16825057 66.22049254 -41.94784934 64.47540653 -49.15234375 59.2265625 C-56.38265282 53.00488685 -60.80274665 47.27166593 -61.71875 37.6328125 C-62.31373219 25.54482908 -59.87846395 17.39189978 -52.328125 7.59375 C-38.61519989 -7.42040158 -17.04926479 -11.72938141 0 0 Z " fill="#02ACD7" transform="translate(136.375,79.75)"/>
<path d="M0 0 C3.64759664 2.42607591 5.81416702 5.27662805 7.1875 9.4375 C8.10849571 15.35071111 7.26155805 20.25002705 4.1875 25.4375 C-0.64977041 30.48017467 -5.33767851 34.67942362 -12.5625 34.875 C-18.05890437 34.75321851 -21.74867591 33.11150883 -25.8125 29.4375 C-28.95813723 25.21054998 -29.39674436 21.10897724 -29.2265625 15.96484375 C-28.30780897 10.35698024 -24.97621946 6.26238543 -20.8125 2.5625 C-14.4795146 -1.92336466 -7.2463979 -3.63099078 0 0 Z " fill="#FBFDFE" transform="translate(189.8125,92.5625)"/>
<path d="M0 0 C11.22 0 22.44 0 34 0 C33.34 1.32 32.68 2.64 32 4 C20.78 4 9.56 4 -2 4 C-1.34 2.68 -0.68 1.36 0 0 Z " fill="#24B3DA" transform="translate(40,91)"/>
<path d="M0 0 C14.52 0 29.04 0 44 0 C44 0.99 44 1.98 44 3 C29.15 3 14.3 3 -1 3 C-0.67 2.01 -0.34 1.02 0 0 Z " fill="#01A8D5" transform="translate(25,100)"/>
<path d="M0 0 C6.6 0 13.2 0 20 0 C20 0.99 20 1.98 20 3 C13.07 3 6.14 3 -1 3 C-0.67 2.01 -0.34 1.02 0 0 Z " fill="#00A9D5" transform="translate(47,109)"/>
</svg>
